<?xml version="1.0" encoding="UTF-8"?>
<svg width="26px" height="26px" viewBox="0 0 26 26" version="1.1" xmlns="http://www.w3.org/2000/svg" xmlns:xlink="http://www.w3.org/1999/xlink">
    <title>编组 12</title>
    <g id="图标" stroke="none" stroke-width="1" fill="none" fill-rule="evenodd">
        <g id="编组-12">
            <rect id="矩形" x="0" y="0" width="26" height="26"></rect>
            <g id="编组备份" transform="translate(4.000000, 3.000000)" fill-rule="nonzero">
                <path d="M14.1463495,14.8733882 C13.7192781,14.8733882 13.3732568,15.2182694 13.3732568,15.6439335 L13.3732568,17.6479727 C13.3732568,18.0581016 12.9181296,18.4620165 12.5066448,18.4620165 L2.39721083,18.4620165 C1.985726,18.4620165 1.54306809,18.0581016 1.54306809,17.6479727 L1.54306809,2.37066957 C1.54306809,1.96054062 1.985726,1.53798353 2.39721083,1.53798353 L12.5097621,1.53798353 C12.9212469,1.53798353 13.3763741,1.96054062 13.3763741,2.37066957 L13.3763741,4.31256797 C13.3763741,4.7382321 13.7223954,5.08311325 14.1494668,5.08311325 C14.5765381,5.08311325 14.9225595,4.7382321 14.9225595,4.31256797 L14.9225595,2.37066957 C14.9225595,1.1123194 13.7753897,0 12.5128794,0 L2.39721083,0 C1.13470057,0 0,1.1123194 0,2.37066957 L0,17.6479727 C0,18.9063228 1.13470057,20 2.39721083,20 L12.5097621,20 C13.7722724,20 14.9194422,18.9063228 14.9194422,17.6479727 L14.9194422,15.6439335 C14.9194422,15.2182694 14.5734208,14.8733882 14.1463495,14.8733882 L14.1463495,14.8733882 Z" id="路径" fill="#5A5A5A"></path>
                <path d="M15.0597211,6.27932267 C15.3621001,5.97794003 15.8484003,5.97794003 16.1507793,6.27932267 L16.1507793,6.27932267 L18.3671862,8.48842629 C18.7755537,8.89234115 19,9.43296567 19,10.0108746 C19,10.5856766 18.7755537,11.1263011 18.3671862,11.533323 L18.3671862,11.533323 L16.1507793,13.7424266 C16.0011485,13.8946714 15.8016407,13.9692403 15.6052502,13.9692403 C15.4088597,13.9692403 15.2093519,13.8915644 15.0597211,13.7424266 C14.7573421,13.441044 14.7573421,12.9563461 15.0597211,12.6549635 L15.0597211,12.6549635 L16.9511501,10.7682857 L8.61624282,10.7689918 C8.22476073,10.7689918 7.90138319,10.4791958 7.85020556,10.1030267 L7.84315012,9.99844648 C7.84315012,9.57278235 8.18917145,9.2279012 8.61624282,9.2279012 L8.61624282,9.2279012 L16.9231501,9.22728569 L15.0597211,7.36678577 C14.7848311,7.09280156 14.7598411,6.66731718 14.9847511,6.36578748 Z" id="形状结合" fill="#D33024"></path>
            </g>
        </g>
    </g>
</svg>