<?xml version="1.0" encoding="UTF-8"?>
<svg width="20px" height="20px" viewBox="0 0 20 20" version="1.1" xmlns="http://www.w3.org/2000/svg" xmlns:xlink="http://www.w3.org/1999/xlink">
    <title>编组 11</title>
    <g id="图标" stroke="none" stroke-width="1" fill="none" fill-rule="evenodd">
        <g id="编组-11">
            <rect id="矩形备份-3" x="0" y="0" width="20" height="20"></rect>
            <g id="编组" transform="translate(3.636364, 2.727273)" fill="#B3B3B3" fill-rule="nonzero">
                <path d="M12.0083333,8.28619137 L12.0040581,8.28619137 L11.9622801,8.24537481 L11.9622801,7.03565067 L6.30430176,7.03565067 L6.30430176,6.13852366 L11.9622801,6.13852366 L11.9622801,4.89067978 L13.6363636,6.52623477 L13.6363636,6.53096507 L12.0083333,8.28619137 Z M9.0114431,0.859067085 L2.05796779,0.859067085 L4.7249947,2.21476193 C5.07949248,2.39495942 5.36744013,2.8368135 5.36744013,3.20137873 L5.40924984,11.2443889 C5.43981247,11.2370977 5.47161475,11.2331177 5.50434414,11.2331177 L9.02203857,11.2331177 L9.02203857,8.40037117 L9.85908032,8.40037117 L9.85908032,11.6626512 C9.85908032,11.8998734 9.67169952,12.0921848 9.44055944,12.0921848 L5.50434414,12.0921848 C5.47316699,12.0921848 5.44283217,12.08858 5.41360458,12.0819412 L5.42571519,14.4121009 C5.42571519,14.534382 5.32936004,14.5810163 5.21057957,14.5163035 L0.521243914,11.8463883 C0.233004868,11.6893476 0,11.3186873 0.000524480441,11.0182857 L0.0159620733,0.546953871 C0.00564209194,0.509617081 0,0.470263103 0,0.429533543 C0,0.383094991 0.00726848648,0.338423499 0.0205499035,0.296535828 C0.0412640367,0.136999448 0.137629799,0.0405392619 0.273553718,0.0264951566 C0.318727491,0.00937362228 0.367551395,0 0.418520873,0 L9.42996397,0 C9.66110404,0 9.84848484,0.192305968 9.84848484,0.429533543 C9.84848484,0.459339907 9.84551812,0.488434012 9.83988663,0.516527677 C9.84551812,0.544621342 9.84848484,0.573715448 9.84848484,0.603521812 L9.84848484,4.71943184 L9.0114431,4.71943184 L9.0114431,0.859067085 Z" id="形状"></path>
            </g>
        </g>
    </g>
</svg>